<?xml version="1.0" encoding="UTF-8"?>
<svg xmlns="http://www.w3.org/2000/svg" viewBox="0 0 1600 1200" width="1600" height="1200" font-family="'Microsoft YaHei', 'PingFang SC', sans-serif">
  <defs>
    <style>
      .entity { fill: #e3f2fd; stroke: #1565c0; stroke-width: 2.5; rx: 4; }
      .weak-entity { fill: #f3e5f5; stroke: #7b1fa2; stroke-width: 2.5; rx: 4; }
      .relationship { fill: #fff3e0; stroke: #e65100; stroke-width: 2; }
      .attr { fill: #ffffff; stroke: #546e7a; stroke-width: 1.5; }
      .pk-attr { fill: #fffde7; stroke: #f57f17; stroke-width: 1.8; }
      .line { stroke: #455a64; stroke-width: 1.8; fill: none; }
      .card { font-size: 16px; font-weight: bold; fill: #c62828; }
      .entity-text { font-size: 16px; font-weight: bold; fill: #0d47a1; text-anchor: middle; }
      .weak-text { font-size: 15px; font-weight: bold; fill: #4a148c; text-anchor: middle; }
      .rel-text { font-size: 14px; font-weight: bold; fill: #bf360c; text-anchor: middle; }
      .attr-text { font-size: 12px; fill: #37474f; text-anchor: middle; }
      .pk-text { font-size: 12px; fill: #e65100; text-anchor: middle; text-decoration: underline; }
      .title { font-size: 28px; font-weight: bold; fill: #1a237e; text-anchor: middle; }
      .subtitle { font-size: 14px; fill: #5c6bc0; text-anchor: middle; }
    </style>
    <marker id="arrow" viewBox="0 0 10 10" refX="5" refY="5" markerWidth="4" markerHeight="4" orient="auto-start-auto">
      <path d="M 0 0 L 10 5 L 0 10 z" fill="#455a64"/>
    </marker>
  </defs>

  <!-- Background -->
  <rect width="1600" height="1200" fill="#fafbfc"/>

  <!-- Title -->
  <text x="800" y="42" class="title">EcoSort 智能垃圾分类系统 — 陈氏 ER 图</text>
  <text x="800" y="65" class="subtitle">Chen's Entity-Relationship Diagram</text>

  <!-- Legend -->
  <g transform="translate(30, 85)">
    <rect x="0" y="0" width="20" height="14" class="entity"/>
    <text x="26" y="12" font-size="12" fill="#333">强实体</text>
    <rect x="85" y="0" width="20" height="14" class="weak-entity"/>
    <text x="111" y="12" font-size="12" fill="#333">弱实体</text>
    <polygon points="180,7 190,0 200,7 190,14" class="relationship"/>
    <text x="206" y="12" font-size="12" fill="#333">联系</text>
    <ellipse cx="270" cy="7" rx="14" ry="7" class="pk-attr"/>
    <text x="290" y="12" font-size="12" fill="#333">主键</text>
    <ellipse cx="340" cy="7" rx="14" ry="7" class="attr"/>
    <text x="360" y="12" font-size="12" fill="#333">属性</text>
  </g>

  <!-- ============================== -->
  <!--        ENTITY: users           -->
  <!-- ============================== -->
  <g id="users">
    <rect x="680" y="420" width="160" height="45" class="entity"/>
    <text x="760" y="448" class="entity-text">用户 (users)</text>
    <!-- PK: id -->
    <ellipse cx="620" cy="370" rx="28" ry="16" class="pk-attr"/>
    <text x="620" y="375" class="pk-text">id</text>
    <line x1="640" y1="382" x2="700" y2="420" class="line"/>
    <!-- openid -->
    <ellipse cx="710" cy="370" rx="36" ry="16" class="attr"/>
    <text x="710" y="375" class="attr-text">openid</text>
    <line x1="710" y1="386" x2="730" y2="420" class="line"/>
    <!-- nickname -->
    <ellipse cx="815" cy="370" rx="42" ry="16" class="attr"/>
    <text x="815" y="375" class="attr-text">nickname</text>
    <line x1="800" y1="386" x2="780" y2="420" class="line"/>
    <!-- total_points -->
    <ellipse cx="920" cy="390" rx="52" ry="16" class="attr"/>
    <text x="920" y="395" class="attr-text">total_points</text>
    <line x1="872" y1="396" x2="840" y2="430" class="line"/>
    <!-- avatar_url -->
    <ellipse cx="550" cy="410" rx="46" ry="16" class="attr"/>
    <text x="550" y="415" class="attr-text">avatar_url</text>
    <line x1="596" y1="414" x2="680" y2="435" class="line"/>
    <!-- check_in_days -->
    <ellipse cx="930" cy="435" rx="56" ry="16" class="attr"/>
    <text x="930" y="440" class="attr-text">check_in_days</text>
    <line x1="874" y1="440" x2="840" y2="442" class="line"/>
  </g>

  <!-- ============================== -->
  <!--   ENTITY: trash_categories     -->
  <!-- ============================== -->
  <g id="trash_categories">
    <rect x="100" y="160" width="220" height="45" class="entity"/>
    <text x="210" y="188" class="entity-text">垃圾分类 (trash_categories)</text>
    <!-- PK -->
    <ellipse cx="100" cy="125" rx="28" ry="16" class="pk-attr"/>
    <text x="100" y="130" class="pk-text">id</text>
    <line x1="113" y1="140" x2="150" y2="160" class="line"/>
    <!-- name -->
    <ellipse cx="185" cy="125" rx="34" ry="16" class="attr"/>
    <text x="185" y="130" class="attr-text">name</text>
    <line x1="185" y1="141" x2="195" y2="160" class="line"/>
    <!-- type -->
    <ellipse cx="270" cy="125" rx="30" ry="16" class="attr"/>
    <text x="270" y="130" class="attr-text">type</text>
    <line x1="260" y1="141" x2="240" y2="160" class="line"/>
    <!-- tips -->
    <ellipse cx="350" cy="145" rx="28" ry="16" class="attr"/>
    <text x="350" y="150" class="attr-text">tips</text>
    <line x1="324" y1="152" x2="320" y2="170" class="line"/>
  </g>

  <!-- ============================== -->
  <!--      ENTITY: enterprises       -->
  <!-- ============================== -->
  <g id="enterprises">
    <rect x="1240" y="420" width="210" height="45" class="entity"/>
    <text x="1345" y="448" class="entity-text">企业 (enterprises)</text>
    <!-- PK -->
    <ellipse cx="1260" cy="385" rx="28" ry="16" class="pk-attr"/>
    <text x="1260" y="390" class="pk-text">id</text>
    <line x1="1270" y1="401" x2="1290" y2="420" class="line"/>
    <!-- name -->
    <ellipse cx="1345" cy="385" rx="34" ry="16" class="attr"/>
    <text x="1345" y="390" class="attr-text">name</text>
    <line x1="1345" y1="401" x2="1345" y2="420" class="line"/>
    <!-- verify_status -->
    <ellipse cx="1455" cy="390" rx="56" ry="16" class="attr"/>
    <text x="1455" y="395" class="attr-text">verify_status</text>
    <line x1="1405" y1="398" x2="1400" y2="420" class="line"/>
  </g>

  <!-- ============================== -->
  <!--        ENTITY: prizes          -->
  <!-- ============================== -->
  <g id="prizes">
    <rect x="1250" y="160" width="180" height="45" class="entity"/>
    <text x="1340" y="188" class="entity-text">奖品 (prizes)</text>
    <!-- PK -->
    <ellipse cx="1265" cy="125" rx="28" ry="16" class="pk-attr"/>
    <text x="1265" y="130" class="pk-text">id</text>
    <line x1="1275" y1="141" x2="1290" y2="160" class="line"/>
    <!-- name -->
    <ellipse cx="1345" cy="125" rx="34" ry="16" class="attr"/>
    <text x="1345" y="130" class="attr-text">name</text>
    <line x1="1345" y1="141" x2="1345" y2="160" class="line"/>
    <!-- points -->
    <ellipse cx="1428" cy="130" rx="36" ry="16" class="attr"/>
    <text x="1428" y="135" class="attr-text">points</text>
    <line x1="1400" y1="140" x2="1390" y2="160" class="line"/>
  </g>

  <!-- ============================== -->
  <!--          ENTITY: news          -->
  <!-- ============================== -->
  <g id="news">
    <rect x="50" y="720" width="180" height="45" class="entity"/>
    <text x="140" y="748" class="entity-text">资讯 (news)</text>
    <!-- PK -->
    <ellipse cx="60" cy="690" rx="28" ry="16" class="pk-attr"/>
    <text x="60" y="695" class="pk-text">id</text>
    <line x1="74" y1="704" x2="90" y2="720" class="line"/>
    <!-- title -->
    <ellipse cx="140" cy="690" rx="30" ry="16" class="attr"/>
    <text x="140" y="695" class="attr-text">title</text>
    <line x1="140" y1="706" x2="140" y2="720" class="line"/>
    <!-- category -->
    <ellipse cx="230" cy="690" rx="42" ry="16" class="attr"/>
    <text x="230" y="695" class="attr-text">category</text>
    <line x1="210" y1="704" x2="195" y2="720" class="line"/>
  </g>

  <!-- ============================== -->
  <!--    ENTITY: recycle_points      -->
  <!-- ============================== -->
  <g id="recycle_points">
    <rect x="1230" y="660" width="230" height="45" class="entity"/>
    <text x="1345" y="688" class="entity-text">回收点 (recycle_points)</text>
    <!-- PK -->
    <ellipse cx="1250" cy="625" rx="28" ry="16" class="pk-attr"/>
    <text x="1250" y="630" class="pk-text">id</text>
    <line x1="1260" y1="641" x2="1280" y2="660" class="line"/>
    <!-- name -->
    <ellipse cx="1340" cy="625" rx="34" ry="16" class="attr"/>
    <text x="1340" y="630" class="attr-text">name</text>
    <line x1="1340" y1="641" x2="1340" y2="660" class="line"/>
    <!-- address -->
    <ellipse cx="1435" cy="630" rx="40" ry="16" class="attr"/>
    <text x="1435" y="635" class="attr-text">address</text>
    <line x1="1405" y1="640" x2="1395" y2="660" class="line"/>
  </g>

  <!-- ============================== -->
  <!--   WEAK: point_records          -->
  <!-- ============================== -->
  <g id="point_records">
    <rect x="370" y="620" width="190" height="40" class="weak-entity"/>
    <rect x="374" y="624" width="182" height="32" class="weak-entity"/>
    <text x="465" y="645" class="weak-text">积分记录 (point_records)</text>
  </g>

  <!-- ============================== -->
  <!--   WEAK: identify_history       -->
  <!-- ============================== -->
  <g id="identify_history">
    <rect x="600" y="620" width="210" height="40" class="weak-entity"/>
    <rect x="604" y="624" width="202" height="32" class="weak-entity"/>
    <text x="705" y="645" class="weak-text">识别历史 (identify_history)</text>
  </g>

  <!-- ============================== -->
  <!--   WEAK: user_tasks             -->
  <!-- ============================== -->
  <g id="user_tasks">
    <rect x="850" y="620" width="180" height="40" class="weak-entity"/>
    <rect x="854" y="624" width="172" height="32" class="weak-entity"/>
    <text x="940" y="645" class="weak-text">任务记录 (user_tasks)</text>
  </g>

  <!-- ============================== -->
  <!--   WEAK: user_feedback          -->
  <!-- ============================== -->
  <g id="user_feedback">
    <rect x="430" y="840" width="200" height="40" class="weak-entity"/>
    <rect x="434" y="844" width="192" height="32" class="weak-entity"/>
    <text x="530" y="865" class="weak-text">用户反馈 (user_feedback)</text>
  </g>

  <!-- ============================== -->
  <!--   WEAK: user_achievements      -->
  <!-- ============================== -->
  <g id="user_achievements">
    <rect x="700" y="840" width="230" height="40" class="weak-entity"/>
    <rect x="704" y="844" width="222" height="32" class="weak-entity"/>
    <text x="815" y="865" class="weak-text">用户成就 (user_achievements)</text>
  </g>

  <!-- ============================================ -->
  <!--            RELATIONSHIP DIAMONDS             -->
  <!-- ============================================ -->

  <!-- R1: users --收藏-- trash_categories -->
  <g id="rel_favorite">
    <polygon points="420,290 470,260 520,290 470,320" class="relationship"/>
    <text x="470" y="295" class="rel-text">收藏</text>
    <!-- line to users -->
    <line x1="495" y1="318" x2="710" y2="420" class="line"/>
    <text x="620" y="365" class="card">N</text>
    <!-- line to trash -->
    <line x1="440" y1="264" x2="280" y2="205" class="line"/>
    <text x="340" y="230" class="card">M</text>
  </g>

  <!-- R2: users --兑换-- prizes (exchange_records) -->
  <g id="rel_exchange">
    <polygon points="1070,290 1120,260 1170,290 1120,320" class="relationship"/>
    <text x="1120" y="295" class="rel-text">兑换</text>
    <!-- line to users -->
    <line x1="1095" y1="318" x2="830" y2="420" class="line"/>
    <text x="940" y="370" class="card">N</text>
    <!-- line to prizes -->
    <line x1="1145" y1="264" x2="1280" y2="205" class="line"/>
    <text x="1220" y="230" class="card">M</text>
  </g>

  <!-- R3: users --核销-- enterprises (verify_records) -->
  <g id="rel_verify">
    <polygon points="1020,442 1070,412 1120,442 1070,472" class="relationship"/>
    <text x="1070" y="447" class="rel-text">核销</text>
    <!-- line to users -->
    <line x1="1020" y1="442" x2="840" y2="442" class="line"/>
    <text x="910" y="435" class="card">N</text>
    <!-- line to enterprises -->
    <line x1="1120" y1="442" x2="1240" y2="442" class="line"/>
    <text x="1190" y="435" class="card">M</text>
  </g>

  <!-- R4: enterprises --运营-- recycle_points -->
  <g id="rel_operate">
    <polygon points="1320,555 1370,525 1420,555 1370,585" class="relationship"/>
    <text x="1370" y="560" class="rel-text">运营</text>
    <!-- line to enterprises -->
    <line x1="1360" y1="527" x2="1350" y2="465" class="line"/>
    <text x="1340" y="495" class="card">1</text>
    <!-- line to recycle_points -->
    <line x1="1370" y1="585" x2="1360" y2="660" class="line"/>
    <text x="1378" y="630" class="card">N</text>
  </g>

  <!-- R5: users --积分变动-- point_records -->
  <g id="rel_points">
    <polygon points="505,530 555,500 605,530 555,560" class="relationship"/>
    <text x="555" y="533" class="rel-text" font-size="12">积分变动</text>
    <line x1="555" y1="500" x2="730" y2="465" class="line"/>
    <text x="650" y="475" class="card">1</text>
    <line x1="530" y1="555" x2="490" y2="620" class="line"/>
    <text x="500" y="595" class="card">N</text>
  </g>

  <!-- R6: users --识别-- identify_history -->
  <g id="rel_identify">
    <polygon points="710,530 760,500 810,530 760,560" class="relationship"/>
    <text x="760" y="535" class="rel-text">识别</text>
    <line x1="760" y1="500" x2="760" y2="465" class="line"/>
    <text x="770" y="480" class="card">1</text>
    <line x1="745" y1="558" x2="720" y2="620" class="line"/>
    <text x="735" y="595" class="card">N</text>
  </g>

  <!-- R7: users --完成-- user_tasks -->
  <g id="rel_task">
    <polygon points="900,530 950,500 1000,530 950,560" class="relationship"/>
    <text x="950" y="535" class="rel-text">完成</text>
    <line x1="950" y1="500" x2="800" y2="465" class="line"/>
    <text x="870" y="478" class="card">1</text>
    <line x1="950" y1="560" x2="940" y2="620" class="line"/>
    <text x="955" y="595" class="card">N</text>
  </g>

  <!-- R8: users --反馈-- user_feedback -->
  <g id="rel_feedback">
    <polygon points="530,760 580,730 630,760 580,790" class="relationship"/>
    <text x="580" y="765" class="rel-text">反馈</text>
    <line x1="605" y1="733" x2="740" y2="465" class="line"/>
    <text x="695" y="560" class="card">1</text>
    <line x1="565" y1="788" x2="545" y2="840" class="line"/>
    <text x="560" y="825" class="card">N</text>
  </g>

  <!-- R9: users --获得成就-- user_achievements -->
  <g id="rel_achievement">
    <polygon points="800,760 850,730 900,760 850,790" class="relationship"/>
    <text x="850" y="763" class="rel-text" font-size="12">获得成就</text>
    <line x1="835" y1="733" x2="780" y2="465" class="line"/>
    <text x="798" y="560" class="card">1</text>
    <line x1="845" y1="790" x2="830" y2="840" class="line"/>
    <text x="845" y="825" class="card">N</text>
  </g>

  <!-- ============================================ -->
  <!--            WEAK ENTITY ATTRIBUTES            -->
  <!-- ============================================ -->

  <!-- point_records attrs -->
  <ellipse cx="380" cy="685" rx="36" ry="14" class="attr"/>
  <text x="380" y="689" class="attr-text">points</text>
  <line x1="400" y1="673" x2="430" y2="660" class="line"/>
  <ellipse cx="490" cy="685" rx="32" ry="14" class="attr"/>
  <text x="490" y="689" class="attr-text">reason</text>
  <line x1="490" y1="671" x2="480" y2="660" class="line"/>

  <!-- identify_history attrs -->
  <ellipse cx="625" cy="685" rx="46" ry="14" class="attr"/>
  <text x="625" y="689" class="attr-text">trash_name</text>
  <line x1="650" y1="673" x2="670" y2="660" class="line"/>
  <ellipse cx="755" cy="685" rx="48" ry="14" class="attr"/>
  <text x="755" y="689" class="attr-text">confidence</text>
  <line x1="740" y1="673" x2="730" y2="660" class="line"/>

  <!-- user_tasks attrs -->
  <ellipse cx="890" cy="685" rx="52" ry="14" class="attr"/>
  <text x="890" y="689" class="attr-text">complete_date</text>
  <line x1="910" y1="673" x2="920" y2="660" class="line"/>
  <ellipse cx="1010" cy="680" rx="42" ry="14" class="attr"/>
  <text x="1010" y="684" class="attr-text">task_id</text>
  <line x1="980" y1="678" x2="970" y2="660" class="line"/>

  <!-- user_feedback attrs -->
  <ellipse cx="460" cy="905" rx="36" ry="14" class="attr"/>
  <text x="460" y="909" class="attr-text">content</text>
  <line x1="475" y1="893" x2="500" y2="880" class="line"/>
  <ellipse cx="575" cy="905" rx="32" ry="14" class="attr"/>
  <text x="575" y="909" class="attr-text">status</text>
  <line x1="565" y1="893" x2="550" y2="880" class="line"/>

  <!-- user_achievements attrs -->
  <ellipse cx="760" cy="905" rx="56" ry="14" class="attr"/>
  <text x="760" y="909" class="attr-text">achievement_id</text>
  <line x1="790" y1="893" x2="800" y2="880" class="line"/>

  <!-- ============================== -->
  <!--          news (standalone)     -->
  <!-- ============================== -->
  <!-- news additional attrs -->
  <ellipse cx="60" cy="785" rx="36" ry="14" class="attr"/>
  <text x="60" y="789" class="attr-text">content</text>
  <line x1="75" y1="773" x2="95" y2="765" class="line"/>
  <ellipse cx="170" cy="785" rx="32" ry="14" class="attr"/>
  <text x="170" y="789" class="attr-text">status</text>
  <line x1="160" y1="773" x2="150" y2="765" class="line"/>
  <ellipse cx="260" cy="778" rx="44" ry="14" class="attr"/>
  <text x="260" y="782" class="attr-text">view_count</text>
  <line x1="230" y1="773" x2="210" y2="765" class="line"/>

  <!-- recycle_points additional attrs -->
  <ellipse cx="1255" cy="728" rx="40" ry="14" class="attr"/>
  <text x="1255" y="732" class="attr-text">latitude</text>
  <line x1="1275" y1="716" x2="1290" y2="705" class="line"/>
  <ellipse cx="1365" cy="728" rx="46" ry="14" class="attr"/>
  <text x="1365" y="732" class="attr-text">longitude</text>
  <line x1="1355" y1="716" x2="1345" y2="705" class="line"/>
  <ellipse cx="1460" cy="720" rx="32" ry="14" class="attr"/>
  <text x="1460" y="724" class="attr-text">status</text>
  <line x1="1435" y1="715" x2="1410" y2="705" class="line"/>

  <!-- enterprises additional attrs -->
  <ellipse cx="1270" cy="488" rx="36" ry="14" class="attr"/>
  <text x="1270" y="492" class="attr-text">phone</text>
  <line x1="1285" y1="476" x2="1300" y2="465" class="line"/>
  <ellipse cx="1380" cy="488" rx="46" ry="14" class="attr"/>
  <text x="1380" y="492" class="attr-text">license_no</text>
  <line x1="1370" y1="476" x2="1360" y2="465" class="line"/>

  <!-- prizes additional attrs -->
  <ellipse cx="1275" cy="225" rx="32" ry="14" class="attr"/>
  <text x="1275" y="229" class="attr-text">stock</text>
  <line x1="1285" y1="213" x2="1300" y2="205" class="line"/>
  <ellipse cx="1375" cy="225" rx="30" ry="14" class="attr"/>
  <text x="1375" y="229" class="attr-text">type</text>
  <line x1="1365" y1="213" x2="1355" y2="205" class="line"/>

  <!-- trash_categories additional attrs -->
  <ellipse cx="110" cy="225" rx="48" ry="14" class="attr"/>
  <text x="110" y="229" class="attr-text">type_name</text>
  <line x1="135" y1="213" x2="155" y2="205" class="line"/>
  <ellipse cx="245" cy="228" rx="48" ry="14" class="attr"/>
  <text x="245" y="232" class="attr-text">description</text>
  <line x1="230" y1="216" x2="225" y2="205" class="line"/>

  <!-- ============================== -->
  <!--   Relationship: 收藏 attrs     -->
  <!-- ============================== -->
  <!-- user_favorites is the M:N table -->
  <ellipse cx="405" cy="255" rx="28" ry="13" class="pk-attr"/>
  <text x="405" y="259" class="pk-text">id</text>
  <line x1="425" y1="262" x2="445" y2="270" class="line"/>

  <!-- exchange_records attrs -->
  <ellipse cx="1090" cy="255" rx="32" ry="13" class="attr"/>
  <text x="1090" y="259" class="attr-text">status</text>
  <line x1="1105" y1="266" x2="1110" y2="270" class="line"/>
  <ellipse cx="1165" cy="252" rx="28" ry="13" class="pk-attr"/>
  <text x="1165" y="256" class="pk-text">id</text>
  <line x1="1150" y1="262" x2="1140" y2="270" class="line"/>

  <!-- verify_records attrs on diamond -->
  <ellipse cx="1070" cy="385" rx="28" ry="13" class="pk-attr"/>
  <text x="1070" y="389" class="pk-text">id</text>
  <line x1="1070" y1="398" x2="1070" y2="412" class="line"/>
  <ellipse cx="1000" cy="398" rx="36" ry="13" class="attr"/>
  <text x="1000" y="402" class="attr-text">points</text>
  <line x1="1030" y1="405" x2="1046" y2="418" class="line"/>

  <!-- Footer note -->
  <text x="800" y="960" font-size="13" fill="#78909c" text-anchor="middle">
    注: 双线矩形表示弱实体 (依赖于强实体存在) | 菱形中的文字表示联系名称 | M:N 表示多对多联系 | 1:N 表示一对多联系
  </text>
  <text x="800" y="982" font-size="13" fill="#78909c" text-anchor="middle">
    主要外键关系: point_records → users | identify_history → users | user_tasks → users | exchange_records → users, prizes
  </text>
  <text x="800" y="1004" font-size="13" fill="#78909c" text-anchor="middle">
    user_favorites → users, trash_categories | verify_records → users, enterprises | recycle_points → enterprises
  </text>
</svg>
